<?xml version="1.0" encoding="utf-8"?>
<!-- Generator: Adobe Illustrator 22.1.0, SVG Export Plug-In . SVG Version: 6.00 Build 0)  -->
<svg version="1.1" id="Layer_1" xmlns="http://www.w3.org/2000/svg" xmlns:xlink="http://www.w3.org/1999/xlink" x="0px" y="0px"
	 viewBox="0 0 393.8 434.2" style="enable-background:new 0 0 393.8 434.2;" xml:space="preserve">
<style type="text/css">
	.st0{fill:none;}
	.st1{enable-background:new    ;}
	.st2{fill:#1776C7;}
	.st3{fill:url(#SVGID_1_);}
	.st4{fill:url(#SVGID_2_);}
	.st5{fill:#C9F5FD;}
	.st6{fill:url(#SVGID_3_);}
</style>
<g id="mello_text">
	<rect x="-42.1" y="313.6" class="st0" width="490.7" height="164.7"/>
	<g class="st1">
		<path class="st2" d="M115.2,318.3c0.3,0.4,0.5,0.8,0.5,1.3v66c0,0.5-0.2,1-0.6,1.4c-0.4,0.4-0.9,0.6-1.5,0.6
			c-0.6,0-1.1-0.2-1.5-0.6c-0.4-0.4-0.6-0.9-0.6-1.4v-59.8l-25.8,39c-0.3,0.5-0.8,0.8-1.4,0.8c-0.7,0-1.3-0.3-1.6-0.8l-25.9-39.1
			v59.9c0,0.5-0.2,1-0.6,1.4c-0.4,0.4-0.9,0.6-1.4,0.6c-0.6,0-1.1-0.2-1.5-0.6c-0.4-0.4-0.5-0.9-0.5-1.4v-66c0-0.5,0.2-0.9,0.5-1.3
			c0.4-0.4,0.8-0.7,1.4-0.7c0.9,0,1.5,0.3,1.9,0.9l27.7,41.2l27.7-41.2c0.5-0.7,1.2-1,1.9-0.9C114.5,317.7,114.9,317.9,115.2,318.3z
			"/>
		<path class="st2" d="M176.8,384.2c0.4,0.4,0.6,0.9,0.6,1.4c0,0.6-0.2,1.1-0.6,1.5c-0.4,0.4-0.9,0.5-1.4,0.5h-37.7
			c-0.5,0-1-0.2-1.4-0.6c-0.4-0.4-0.6-0.9-0.6-1.4v-66c0-0.5,0.2-1,0.6-1.4c0.4-0.4,0.9-0.6,1.4-0.6h37.7c0.5,0,1,0.2,1.4,0.6
			c0.4,0.4,0.6,0.9,0.6,1.4c0,0.6-0.2,1.1-0.6,1.5c-0.4,0.4-0.9,0.5-1.4,0.5h-35.5v27.9h31c0.5,0,1,0.2,1.4,0.6s0.6,0.9,0.6,1.4
			c0,0.6-0.2,1.1-0.6,1.4c-0.4,0.4-0.9,0.6-1.4,0.6h-31v30.1h35.5C176,383.6,176.4,383.8,176.8,384.2z"/>
		<path class="st2" d="M232.5,384.2c0.4,0.4,0.6,0.9,0.6,1.4c0,0.6-0.2,1.1-0.6,1.5c-0.4,0.4-0.9,0.5-1.4,0.5h-36.7
			c-0.6,0-1.1-0.2-1.5-0.6c-0.4-0.4-0.5-0.9-0.5-1.4v-66c0-0.5,0.2-1,0.6-1.4c0.4-0.4,0.9-0.6,1.5-0.6s1.1,0.2,1.5,0.6
			c0.4,0.4,0.6,0.9,0.6,1.4v64h34.5C231.7,383.6,232.1,383.8,232.5,384.2z"/>
		<path class="st2" d="M284.7,384.2c0.4,0.4,0.6,0.9,0.6,1.4c0,0.6-0.2,1.1-0.6,1.5c-0.4,0.4-0.9,0.5-1.4,0.5h-36.7
			c-0.6,0-1.1-0.2-1.5-0.6c-0.4-0.4-0.5-0.9-0.5-1.4v-66c0-0.5,0.2-1,0.6-1.4c0.4-0.4,0.9-0.6,1.5-0.6c0.6,0,1.1,0.2,1.5,0.6
			c0.4,0.4,0.6,0.9,0.6,1.4v64h34.5C283.9,383.6,284.3,383.8,284.7,384.2z"/>
		<path class="st2" d="M353.4,371.3c-2.8,5.5-6.8,9.7-11.8,12.8c-5.1,3-10.8,4.5-17.3,4.5c-6.5,0-12.2-1.5-17.3-4.5
			c-5.1-3-9-7.3-11.8-12.8c-2.8-5.5-4.2-11.7-4.2-18.7s1.4-13.2,4.2-18.7c2.8-5.5,6.8-9.7,11.8-12.8c5.1-3,10.8-4.5,17.3-4.5
			c6.5,0,12.2,1.5,17.3,4.5c5.1,3,9,7.3,11.8,12.8c2.8,5.5,4.2,11.7,4.2,18.7S356.2,365.9,353.4,371.3z M349.7,335.9
			c-2.5-4.9-5.9-8.6-10.4-11.3c-4.4-2.7-9.5-4-15.2-4c-5.7,0-10.7,1.3-15.1,4c-4.4,2.7-7.9,6.4-10.4,11.3
			c-2.5,4.9-3.7,10.4-3.7,16.7c0,6.3,1.2,11.8,3.7,16.7c2.5,4.9,5.9,8.6,10.4,11.3c4.4,2.7,9.5,4,15.1,4c5.7,0,10.7-1.3,15.2-4
			c4.4-2.7,7.9-6.4,10.4-11.3c2.5-4.9,3.7-10.4,3.7-16.7C353.4,346.4,352.2,340.8,349.7,335.9z"/>
	</g>
</g>
<g id="u_shado">
	
		<linearGradient id="SVGID_1_" gradientUnits="userSpaceOnUse" x1="262.8384" y1="227.018" x2="138.1988" y2="226.1131" gradientTransform="matrix(0.9998 -1.745241e-02 -1.745241e-02 -0.9998 6.8611 437.4856)">
		<stop  offset="0" style="stop-color:#AAF9FF"/>
		<stop  offset="1" style="stop-color:#3197E0"/>
	</linearGradient>
	<path class="st3" d="M142.4,180.9l-5.1-8.4c0,0-8.2,32.9,19.7,57.5s59.4,13.9,59.4,13.9s27.7-8.7,36.5-31.4
		c8.8-22.7,6.6-32.6,6.6-32.6s-1-11.6-1.7-12.4c-0.7-0.8-4.9,8.2-4.9,8.2s11.5,24.6-13.7,52.9c0,0-16.3,14.9-35.8,15.5
		s-31.1-5.7-31.1-5.7s-24.2-12.6-27.9-29.6S142.4,180.9,142.4,180.9z"/>
</g>
<g id="u">
	
		<linearGradient id="SVGID_2_" gradientUnits="userSpaceOnUse" x1="115.2417" y1="212.7642" x2="276.876" y2="212.7642" gradientTransform="matrix(0.9998 -1.745241e-02 -1.745241e-02 -0.9998 6.8611 437.4856)">
		<stop  offset="0" style="stop-color:#AAF9FF"/>
		<stop  offset="1" style="stop-color:#3197E0"/>
	</linearGradient>
	<path class="st4" d="M137.3,172.5l-14.5-5.5c0,0-13.4,36.1,4.3,68.1s48,39.7,48,39.7s44,16.4,79.3-19.1s23.1-77.4,23.1-77.4
		l-5-15.5l-14.9,4.6c0,0,8.6,31.4-13.7,57.6c-22.7,26.8-56.8,20.2-56.8,20.2s-40.8-8.2-49.5-47.3C137.8,197.9,135,175.6,137.3,172.5
		z"/>
</g>
<g id="under_m_1">
	<polyline class="st2" points="166.6,102.5 165.9,118.3 142.5,171 138.9,162.2 165.9,102.3 165.9,102.3 	"/>
</g>
<g id="underm_2">
	<polyline class="st5" points="167,102.5 165.9,118.3 184.9,197.3 186.5,174.2 167,102.5 	"/>
</g>
<g id="under_m_3">
	<polygon class="st2" points="184.9,198.3 220.8,97.6 220.8,77.4 186.5,174.2 	"/>
</g>
<g id="under_m_4">
	<polyline class="st5" points="221.3,79.1 220.8,97.6 249.5,166.6 254.4,155.3 221.3,79.1 	"/>
</g>
<g id="m">
	
		<linearGradient id="SVGID_3_" gradientUnits="userSpaceOnUse" x1="173.088" y1="251.1477" x2="248.5879" y2="381.9174" gradientTransform="matrix(1 0 0 -1 0 436)">
		<stop  offset="0" style="stop-color:#AAF9FF"/>
		<stop  offset="1" style="stop-color:#3197E0"/>
	</linearGradient>
	<polygon class="st6" points="124.5,156.8 138.9,162.2 166.7,99.8 186.5,174.2 220.8,76 254.4,155.3 269.8,150.1 219,37 
		186.9,133.4 167.6,61.6 	"/>
</g>
</svg>
