<?xml version="1.0" encoding="utf-8"?>
<!-- Generator: Adobe Illustrator 22.0.1, SVG Export Plug-In . SVG Version: 6.00 Build 0)  -->
<svg version="1.1" id="Layer_1" xmlns="http://www.w3.org/2000/svg" xmlns:xlink="http://www.w3.org/1999/xlink" x="0px" y="0px"
	 viewBox="0 0 100 100" style="enable-background:new 0 0 100 100;" xml:space="preserve">
<style type="text/css">
	.st0{fill:#FFFFFF;}
</style>
<g>
	<g>
		<path class="st0" d="M13.5,83.4h18.1c0,0,19.7-0.8,19.7-20.7c0,0,0.8-16.2-11.7-16.2c0,0,9.5-0.8,9.5-12.5s-7.7-17.5-17.6-17.5
			h-18H13H0v66.9h13H13.5z M13.5,28.3h15.7h2.4c0,0,4.3,0,4.3,6.7s-2.6,7.9-5.5,7.9h-17V28.3z M13.5,53h18.1c0,0,6.6-0.2,6.6,9
			c0,7.7-5,8.5-7.5,8.5c-0.5,0-1,0-1.1,0h-16C13.5,70.4,13.5,53,13.5,53z"/>
		<path class="st0" d="M77.8,33.2c-23.9,0-23.9,25.2-23.9,25.2s-1.6,25,23.9,25c0,0,21.3,1.3,21.3-17.5H88.2c0,0,0.3,7.1-9.9,7.1
			c0,0-10.9,0.8-10.9-11.4h32.2C99.4,61.6,103,33.2,77.8,33.2z M67,53c0,0,1.3-10.1,10.9-10.1S87.4,53,87.4,53H67z"/>
		<rect x="64.3" y="20.4" class="st0" width="25.7" height="6.3"/>
	</g>
</g>
</svg>
