<?xml version="1.0" encoding="utf-8"?>
<!-- Generator: Adobe Illustrator 22.0.1, SVG Export Plug-In . SVG Version: 6.00 Build 0)  -->
<svg version="1.1" id="Layer_1" xmlns="http://www.w3.org/2000/svg" xmlns:xlink="http://www.w3.org/1999/xlink" x="0px" y="0px"
	 viewBox="0 0 100 100" style="enable-background:new 0 0 100 100;" xml:space="preserve">
<style type="text/css">
	.st0{fill:#FFFFFF;}
</style>
<g>
	<path id="path9-5_8_" class="st0" d="M26.5,48.3c-0.1,0,1.2,2.8,1.2,2.8c2.9,5.1,8.3,8.3,17.5,9.2c-1.3,1-2.9,2.9-3.1,5.1
		c-1.7,1.1-5,1.5-7.5,0.6c-3.7-1.1-5-8.3-10.4-7.3c-1.2,0.2-0.9,1,0.1,1.7c1.7,1.1,3.2,2.4,4.4,5.2c0.9,2.2,2.9,6.1,8.9,6.1
		c2.4,0,4.1-0.3,4.1-0.3s0,5.5,0,7.8c0,2.6-3.3,3.2-3.3,4.4c0,0.4,1.1,0.6,2,0.6c1.8,0,5.4-1.5,5.4-4.1c0-2.1,0-8.9,0-10.2
		c0-2.6,1.5-3.5,1.5-3.5s0.1,14.1-0.4,16.1c-0.6,2.2-1.7,1.9-1.7,2.9c0,1.5,4.4,0.3,5.9-2.9c1.1-2.6,0.7-16.3,0.7-16.3H53
		c0,0,0.1,6.3,0,9.3c0,3-0.2,6.7,1.5,8.7c1.2,1.2,5,3.2,5,1.3c0-1.1-2.1-2-2.1-5V66.5c1.7,0,1.5,4.5,1.5,4.5l0.1,8.3
		c0,0-0.3,3,3.3,4.3c1.3,0.4,4.1,0.6,4.2-0.2s-3.3-1.9-3.3-4.2c0-1.5,0.1-2.4,0.1-8.5c0-6.2-0.9-8.5-3.7-10.4
		C68.7,59.3,74.3,57,77,51c0.2,0,1.1-2.8,1-2.8c0.7-2.2,1-5,1-8.1c0-8.5-4.1-11.6-4.8-13c1.1-6.5-0.2-9.4-0.8-10.4
		C71,16,65.3,18.8,62.1,21c-5.3-1.5-16.1-1.3-20.2,0.4c-7.8-5.3-11.8-4.5-11.8-4.5s-2.6,4.6-0.7,11.3c-2.4,3.1-4.3,5.4-4.3,11.3
		C25.2,42.8,25.6,45.7,26.5,48.3L26.5,48.3z"/>
</g>
</svg>
