<?xml version="1.0" encoding="utf-8"?>
<!-- Generator: Adobe Illustrator 22.0.1, SVG Export Plug-In . SVG Version: 6.00 Build 0)  -->
<svg version="1.1" id="Layer_1" xmlns="http://www.w3.org/2000/svg" xmlns:xlink="http://www.w3.org/1999/xlink" x="0px" y="0px"
	 viewBox="0 0 100 100" style="enable-background:new 0 0 100 100;" xml:space="preserve">
<style type="text/css">
	.st0{fill:#FFFFFF;}
</style>
<g>
	<g>
		<path class="st0" d="M69.2,15.5h-41c-7.2,0-13,5.8-13,13v13.7v27.4c0,7.1,5.8,12.9,13,12.9h41.1c7.2,0,13-5.8,13-13V42V28.5
			C82.1,21.3,76.4,15.5,69.2,15.5z M72.9,23.2h1.5v1.5v9.9H63.1V23.2H72.9z M39.2,42c2.1-3,5.6-4.9,9.5-4.9c4,0,7.4,1.9,9.5,4.9
			c1.4,1.9,2.2,4.3,2.2,6.8c0,6.5-5.2,11.7-11.7,11.7s-11.8-5.2-11.8-11.7C36.9,46.4,37.8,44,39.2,42z M75.6,69.4
			c0,3.6-2.9,6.4-6.4,6.4h-41c-3.6,0-6.4-2.9-6.4-6.4V42h9.9c-0.9,2.1-1.4,4.4-1.4,6.8c0,10.1,8.3,18.3,18.3,18.3
			s18.3-8.2,18.3-18.3c0-2.5-0.5-4.7-1.4-6.8h9.9v27.4H75.6z"/>
	</g>
</g>
</svg>
