<?xml version="1.0" encoding="utf-8"?>
<!-- Generator: Adobe Illustrator 22.0.1, SVG Export Plug-In . SVG Version: 6.00 Build 0)  -->
<svg version="1.1" id="Layer_1" xmlns="http://www.w3.org/2000/svg" xmlns:xlink="http://www.w3.org/1999/xlink" x="0px" y="0px"
	 viewBox="0 0 100 100" style="enable-background:new 0 0 100 100;" xml:space="preserve">
<style type="text/css">
	.st0{fill:#FFFFFF;}
</style>
<g>
	<g>
		<rect x="18.4" y="40.8" class="st0" width="15.6" height="44.6"/>
		<path class="st0" d="M26.2,34.2c4.3,0,7.8-3.5,7.8-7.8s-3.5-7.8-7.8-7.8s-7.8,3.5-7.8,7.8S21.8,34.2,26.2,34.2z"/>
		<path class="st0" d="M85.2,61c0-12.1-2.5-20.1-16.6-20.1c-6.8,0-11.2,2.5-13.1,6h-0.2v-6H42.9v44.6h13V63.4
			c0-5.8,1.1-11.4,8.4-11.4c7,0,7.7,6.6,7.7,11.8v21.7h13.2V61z"/>
	</g>
</g>
</svg>
