<?xml version="1.0" encoding="utf-8"?>
<!-- Generator: Adobe Illustrator 22.0.1, SVG Export Plug-In . SVG Version: 6.00 Build 0)  -->
<svg version="1.1" id="Layer_1" xmlns="http://www.w3.org/2000/svg" xmlns:xlink="http://www.w3.org/1999/xlink" x="0px" y="0px"
	 viewBox="0 0 93.3 115.9" style="enable-background:new 0 0 93.3 115.9;" xml:space="preserve">
<style type="text/css">
	.st0{fill:#4F2683;}
	.st1{fill:#FFFFFF;}
</style>
<g>
	<g>
		<g>
			<path class="st0" d="M-269.7,73.8c-12.9,0-14.8-9.8-14.8-24.8v-0.8h33.1c0-13.4-7.4-22.5-21.2-22.5c-15.1,0-23.2,11.6-23.2,25.6
				c0,14.6,7.6,25.6,23.1,25.6c9.6,0,17.4-3.6,21.4-14.2l-2.3-0.8C-256.4,68.5-261.1,73.8-269.7,73.8z M-284.4,42.8
				c0.5-7.4,3.3-14.6,11.1-14.6c8.3,0,10.2,6.5,10.3,13.4c0,0.6,0,2.9,0,3.5h-21.5C-284.5,44.4-284.4,43.5-284.4,42.8z"/>
			<path class="st0" d="M-241.1,103c-3.5-1.1-4.6-1.7-4.6-3.6c0-1.5,1.3-2.7,3.6-2.7c2.1,0,3.5,0.8,4.4,3l1.3-0.6
				c-0.8-2.2-2.6-3.8-5.7-3.8c-3,0-5.1,1.9-5.1,4.2c0,2.7,1.8,3.7,5.4,4.8c3.5,1.1,4.3,2,4.3,3.7c0,1.9-1.6,3-4.1,3
				c-2.3,0-4-1.2-4.7-3.5l-1.4,0.5c0.8,2.7,3,4.4,6.1,4.4c3.3,0,5.7-1.8,5.7-4.5C-235.9,105.2-237.6,104.1-241.1,103z"/>
			<path class="st0" d="M-256.6,100c0-2.9-2.1-4.5-5.7-4.5h-5.5v16.5h1.6v-7.4h4.1l4,7.4h1.8l-4.2-7.6
				C-258.2,104-256.6,102.7-256.6,100z M-262.5,103.3h-3.9V97h3.8c2.8,0,4.3,0.8,4.3,3.1C-258.2,102.5-259.8,103.3-262.5,103.3z"/>
			<path class="st0" d="M-287.1,6.4V3.9h-20.3v2.4h9l-2.3,8.1l-14.1,43h-0.2l-15.8-43.2l-2.8-7.9h10.1V3.9h-31.2v2.4h8.7l5.1,13.8
				l-12.9,37.4h-0.2l-15.6-43l-2.7-8.1h9V3.9H-392v2.4h6.9l3.7,9.7l22.3,60.7h2c0,0,13.7-39.1,18-51.8l19.3,51.8h2.1l20.2-61.4
				l3.2-9L-287.1,6.4L-287.1,6.4z"/>
			<path class="st0" d="M-359.7,106.3c0,2.7-1.4,4.7-4.4,4.7c-3.1,0-4.4-2-4.4-4.7V95.5h-1.6v10.9c0,3.3,1.9,5.9,6,5.9
				c4,0,6-2.6,6-5.9V95.5h-1.6V106.3z"/>
			<path class="st0" d="M-224.5,74.2c-9.8,0-15.5-6.3-17.6-15.7h-2.4l3.3,17.9c1.1-1.2,2.4-1.7,3.8-1.7c2.8,0,6.4,2.2,12.7,2.2
				c10.2,0,17.8-5.7,17.8-15.3c0-19.3-27.6-14.2-27.6-26.6c0-4,2.8-6.9,7.9-6.9c8.1,0,12.6,5.7,14.5,12.5h2.4l-2.8-15.3
				c-0.9,1-2.2,1.6-3.7,1.6c-3.4,0-5.4-1.4-10.6-1.4c-8.8,0-15.6,4.8-15.6,13.5c0,17.8,27.2,14,27.2,26.7
				C-215.1,71.4-219.3,74.2-224.5,74.2z"/>
			<polygon class="st0" points="-335.9,109.2 -336,109.2 -345.1,95.5 -346.8,95.5 -346.8,112.1 -345.3,112.1 -345.3,98 -345.3,98 
				-335.9,112.1 -334.5,112.1 -334.5,95.5 -335.9,95.5 			"/>
			<rect x="-322.1" y="95.5" class="st0" width="1.6" height="16.5"/>
			<polygon class="st0" points="-304,110 -304.1,110 -309,95.5 -310.6,95.5 -304.8,112.1 -303.3,112.1 -297.5,95.5 -299.1,95.5 			
				"/>
			<polygon class="st0" points="-286.3,104.1 -280.2,104.1 -280.2,102.6 -286.3,102.6 -286.3,97 -278.1,97 -278.1,95.5 -287.9,95.5 
				-287.9,112.1 -277.6,112.1 -277.6,110.6 -286.3,110.6 			"/>
			<rect x="-225.9" y="95.5" class="st0" width="1.6" height="16.5"/>
			<path class="st0" d="M-74.1,95.5l-6.2,16.6h1.5l1.9-5.1h7.3l1.9,5.1h1.7l-6.2-16.6H-74.1z M-76.4,105.6l3.1-8.4h0.1l3.1,8.4
				H-76.4z"/>
			<polygon class="st0" points="-215.7,97 -210.3,97 -210.3,112.1 -208.7,112.1 -208.7,97 -203.4,97 -203.4,95.5 -215.7,95.5 			"/>
			<path class="st0" d="M-77.1,32.4c0-4-2.9-6.9-8.3-6.9c-8.1,0-12.1,7.3-14.2,13.1h-0.1V25c-1.6,1.3-3.2,2.6-7.6,2.6
				c-3.1,0-11.2,0-11.2,0v2.5h8.6v43.1h-8.6v2.5h27v-2.5h-8.3V52c0-11.3,5.5-23.6,12.7-23.6c0.5,0,0.9,0.1,1.2,0.2
				c-1.2,1-2,2.5-2,4.2c0,3.1,2.4,5.4,5.4,5.4C-79.3,38.2-77.1,35.5-77.1,32.4z"/>
			<path class="st0" d="M-51.2,95.5h-4.2v16.5h4.2c5.3,0,8.2-2.8,8.2-8.3S-45.8,95.5-51.2,95.5z M-51,110.7h-2.9V97h2.8
				c4.1,0,6.5,2.1,6.5,6.8C-44.5,108.6-46.8,110.7-51,110.7z"/>
			<path class="st0" d="M-28.1,95.5l-6.2,16.6h1.5l1.9-5.1h7.3l1.9,5.1h1.7l-6.2-16.6H-28.1z M-30.3,105.6l3.1-8.4h0.1l3.1,8.4
				H-30.3z"/>
			<path class="st0" d="M-23.6,73.2V39.7c0-10-4.9-14.3-14.7-14.3c-8.2,0-14.2,4-17.3,10.8h-0.2v-11c-1.3,1.1-3.2,2.4-7.6,2.4
				c-2.9,0-10.6,0-10.6,0v2.5h8v43.1h-8.6v2.5h26.6v-2.5h-7.9V47.3c0-9.3,4.8-18.3,13.8-18.3c5.1,0,8.1,2.9,8.1,10.4v33.8h-7.9v2.5
				h25.9v-2.5L-23.6,73.2L-23.6,73.2z"/>
			<polygon class="st0" points="-92.4,109.2 -92.4,109.2 -101.5,95.5 -103.2,95.5 -103.2,112.1 -101.7,112.1 -101.7,98 -101.7,98 
				-92.3,112.1 -90.9,112.1 -90.9,95.5 -92.4,95.5 			"/>
			<path class="st0" d="M-178.7,72.9c-3.8,0-5.4-2.4-5.4-8.3V30.1h12.3v-2.5h-12.3V11.2h-2.1c-1.4,10.6-6.7,16.1-16.4,17v2l0,0h0
				h8.1v34.1c0,6.4,1.2,12.5,11.6,12.5c6.5,0,10.5-3,12.6-6.9l0.8-1.6l-2.2-1C-172.9,70.1-175,72.9-178.7,72.9z"/>
			<path class="st0" d="M-121.9,95.5l-6.2,16.6h1.5l1.9-5.1h7.3l1.9,5.1h1.7l-6.2-16.6H-121.9z M-124.2,105.6l3.1-8.4h0.1l3.1,8.4
				H-124.2z"/>
			<polygon class="st0" points="-189.8,103.4 -194.5,95.5 -196.2,95.5 -190.7,104.9 -190.7,112.1 -189.1,112.1 -189.1,104.9 
				-183.5,95.5 -185.2,95.5 			"/>
			<path class="st0" d="M-167.5,102.2c-1,0-1.7,0.7-1.7,1.7c0,1,0.7,1.7,1.7,1.7c1,0,1.7-0.7,1.7-1.7
				C-165.8,102.9-166.5,102.2-167.5,102.2z"/>
			<path class="st0" d="M-143.6,111c-3.2,0-5.3-2.7-5.3-7.3c0-4.2,2.1-7,5.3-7c2.5,0,3.8,1.4,4.5,4l1.5-0.4c-0.8-3.1-2.6-5-6-5
				c-4.1,0-6.9,3.5-6.9,8.5c0,5.3,2.7,8.6,6.9,8.6c3.3,0,5.4-2,6.3-5.3l-1.5-0.3C-139.6,109.5-141.1,111-143.6,111z"/>
			<path class="st0" d="M-122.3,62.7l-2.3-0.8c-2.8,6.6-7.5,11.9-16.1,11.9c-12.9,0-14.8-9.8-14.8-24.8v-0.8h33.1
				c0-13.4-7.4-22.5-21.2-22.5c-15.1,0-23.2,11.6-23.2,25.6c0,14.6,7.6,25.6,23.1,25.6C-134.2,76.9-126.4,73.3-122.3,62.7z
				 M-155.5,42.8c0.5-7.4,3.3-14.6,11.1-14.6c8.3,0,10.2,6.5,10.3,13.4c0,0.6,0,2.9,0,3.5h-21.5C-155.5,44.4-155.5,43.5-155.5,42.8z
				"/>
		</g>
	</g>
	<g>
		<g>
			<path class="st1" d="M93.3,47.9l0-41.7C82.5,2.5,65.6,0,46.5,0C27.8,0,11.1,2.5,0.3,6.3l0,42.3C0.3,54.8,0,65.8,5.7,79
				c7,16.4,20.7,28.7,40.1,36.5l1,0.4l1-0.4c19.4-7.7,33.1-20.1,40.1-36.5C93.6,65.8,93.3,53.9,93.3,47.9z"/>
			<path class="st0" d="M93.3,47.9l0-41.7C82.5,2.5,65.6,0,46.5,0C27.8,0,11.1,2.5,0.3,6.3l0,42.3C0.3,54.8,0,65.8,5.7,79
				c7,16.4,20.7,28.7,40.1,36.5l1,0.4l1-0.4c19.4-7.7,33.1-20.1,40.1-36.5C93.6,65.8,93.3,53.9,93.3,47.9z M57,93.5
				c-0.2,0.1-0.5,0.2-0.7,0.3c-0.1,0.1-0.2,0.1-0.2,0.2c0,0.1,0.1,0.2,0.1,0.2c-0.1,0.4-1.2,0.4-1.5,0.5c-0.3,0.1-0.6,0.4-0.8,0.6
				c-0.2,0.2-0.1,0.2-0.5,0.2c-0.6,0.1-0.4,0.6-0.3,1c0.2,0.4,0.5,0.7,0.8,1c0.1,0.1,0.7,0.3,1.1,0.3c-0.3,0.3-0.8,0.3-1.1,0.4
				c-0.2,0.1-0.4,0.2-0.7,0.3c-0.3,0.1-0.5,0-0.8,0c-0.4-0.1-0.8-0.1-1.1,0c-0.3,0-0.5,0-0.7-0.1c-0.1-0.1-0.3-0.2-0.4-0.2
				c-0.3-0.1-0.1,0.4,0,0.6c-0.4,0.4-1.4-0.2-1.9-0.4c-0.4-0.2-0.5-0.7-0.9-0.8c0,0.4,0,0.8,0,1.3c0.1,1.3,0.1,2.6,0.1,3.9
				c0,0.8,0,1.5,0.1,2.3h-1.4l0.2-7.5c-0.5,0-0.6,0.4-1,0.6c-0.2,0.1-0.5,0.1-0.7,0.2c-0.2,0.1-0.3,0.3-0.6,0.5
				c-0.2,0.1-0.5,0.1-0.7,0.1c-0.3,0-0.6-0.1-0.8-0.2c0.2-0.3,0-0.6-0.2-0.7c-0.2-0.1-0.5,0.1-0.7,0.1c-1,0.2-2.2-0.4-3.1-0.7
				c0,0,2.2-0.4,2.2-1.6c0-0.4-0.2-0.6-0.4-0.9c-0.3-0.2-0.7-0.5-1.1-0.5c-0.5-0.1-0.9,0.1-1.2-0.1c0-0.2-0.2-0.4-0.5-0.6
				c-0.2-0.2-0.5-0.2-0.7-0.4c-0.4-0.2-1.1-0.6-0.9-1.2c0.4,0.2,0.7,0.2,1,0.1c0.3-0.1,0.3-0.3,0.3-0.6c0-0.4-0.4-0.7-0.6-1
				c-0.1-0.2-0.2-0.5-0.5-0.7c-0.2-0.2-0.5-0.2-0.6-0.5c0.4,0.2,0.5-0.2,0.3-0.5c-0.3-0.3-0.6-0.5-0.9-0.8c-0.2-0.3-0.3-0.8-0.3-1.1
				c0-0.1,0-0.5,0.2-0.5c0.2,0,0.2,0.2,0.3,0.3c0.3,0.4,0.6,0.6,1,0.8c0.5,0.2,0.7,0.4,1.2,0.5c1.1,0.2,1.7,0,2.3-0.5
				c0.1-0.1,0.4-0.3,0.5-0.3c0.2,0.3,0.8,0.9,1.3,1c0.4,0.1,0.9,0.7,1.1,0.9c0.7,0.6,1.2,0.3,1.2-0.3c0-0.5-0.2-1.2-0.3-1.7
				c-0.2-0.8-0.3-1.2-0.4-2c-0.1-0.5-0.3-0.9-0.5-1.3c-0.2-0.3-0.4-1.3,0.2-0.9c0.3,0.1,0.7,0.4,1,0.3c0.8-0.1,0.9-1,1-1.6
				c0.1-0.3,0.1-0.6,0.2-0.9c0.1-0.2,0.2-0.3,0.3-0.3c0,0.1,0.1,0.3,0.3,0.3c0.3,0,0.6-0.5,0.6-0.8c0.1-0.3,0.1-0.6,0.2-0.8
				c0.1-0.4,0.2-0.9,0.4-1.3c0.1,0.3,0.2,0.8,0.3,1c0.2,0.5,0.3,0.9,0.6,1.3c0.2,0.3,0.5,0.4,0.9,0.2c0.2,0.4,0.2,1.9,0.6,2.5
				c0.2,0.4,0.5,0.5,0.8,0.5c0.3,0,0.5-0.1,0.7-0.2c0.3-0.2,0.6-0.4,0.8-0.4c0.1,0,0.1,0,0.1,0.1c0,0.3-0.5,1.1-0.5,1.3
				c-0.1,0.4-0.4,0.8-0.5,1.2c-0.1,0.3-0.2,0.7-0.3,1.1c-0.1,0.4-0.1,0.8-0.2,1.4c0,0.4,0,1,0.3,1.2c0.4,0.3,0.9-0.3,1.2-0.5
				c0.4-0.3,0.7-0.6,1-1c0.2-0.3,0.6-1.1,1.1-1c0,0.3,0.4,0.7,1.1,0.8c0.4,0.1,0.7,0,1-0.2c0.3-0.2,0.3-0.2,0.7-0.1
				c0.7,0.3,2-0.7,2.4-1c0.1,0.2,0,0.5-0.2,0.7c-0.4,0.5-0.8,0.7-0.8,1.1c0,0.3-0.4,1-0.4,1.4c-0.1,0.2-0.5,0.5-0.7,0.6
				c-0.5,0.5-0.9,1-0.7,1.7c0.2,0.6,0.7,0.9,1.2,0.9c0.5,0,0.8-0.3,1-0.2c0.1,0.1-0.1,0.4-0.2,0.4C57.7,93.3,57.3,93.4,57,93.5z
				 M84.7,34.6H8.9l-4.8-5.1l9.7,3.2c-0.8-2.4-3-3.2-4.4-5.3c-0.9-1.2-1.1-2.4-1-3.7c0.3,0.4,0.7,1.1,1.5,1.6
				c0.7,0.5,1.6,0.9,2.9,1.1c2.3,0.5,3.5,1.2,4.5,2.1l-5-8.9l8.5,5.5c-0.4-2.5-2.1-3.8-3-6.2c-0.5-1.4-0.5-2.6-0.1-3.8
				c0.1,0.5,0.4,1.2,1,1.9c0.6,0.6,1.4,1.2,2.5,1.8c2.2,1.1,3.1,2.1,3.9,3.3l-2.6-9.9l6.9,7.4c0.3-2.5-1.1-4.2-1.3-6.7
				c-0.2-1.5,0.2-2.7,0.8-3.8c0,0.5,0.1,1.3,0.5,2.1c0.4,0.8,1,1.5,2,2.4c1.9,1.6,2.5,2.9,3,4.3L34.2,7.6l4.8,8.8
				c0.9-2.2-0.1-4.3,0.3-6.7c0.2-1.5,0.9-2.6,1.8-3.4c-0.1,0.5-0.2,1.3,0,2.1c0.2,0.8,0.6,1.7,1.4,2.8c1.5,2.1,1.8,3.5,1.8,5l0,0
				L46.8,6l2.4,9.8c1.5-2,1.1-4.3,2.1-6.6c0.6-1.4,1.5-2.2,2.6-2.8c-0.2,0.5-0.5,1.2-0.5,2.1c0,0.8,0.1,1.8,0.6,3.1
				c0.9,2.3,0.8,3.7,0.5,5.2l4.9-9.1l-0.1,10.1c1.9-1.5,2.1-3.9,3.6-5.9c0.9-1.2,2-1.7,3.2-2c-0.3,0.4-0.8,1-1,1.9
				c-0.2,0.8-0.3,1.8-0.2,3.1c0.3,2.5-0.2,3.9-0.8,5.2l0,0l7.1-7.7l-2.6,9.7c2.1-1,2.9-3.1,4.9-4.6c1.2-0.9,2.4-1.4,3.6-1.4
				c-0.4,0.3-1,0.8-1.5,1.6c-0.4,0.7-0.8,1.7-1,3c-0.4,2.5-1.1,3.7-2.1,4.9l0,0l8.8-5.7l-4.9,8.7c2.4-0.3,3.5-2.2,5.8-3.2
				c1.4-0.6,2.7-0.8,3.9-0.4c-0.5,0.2-1.2,0.5-1.8,1.1c-0.6,0.6-1.1,1.4-1.7,2.7c-1,2.3-2,3.3-3.2,4.2l0.1,0.1l10-3.3L84.7,34.6z
				 M45.4,56c-0.1-0.2-0.7-1.4-3.6-1.4h-8.5V40.9H34V54h7.8c0.6,0,1.1,0,1.5,0.1c1.6,0.2,2.2,0.9,2.5,1.3l2,0
				c0.3-0.4,0.9-1.1,2.5-1.3c0.4-0.1,0.9-0.1,1.5-0.1h7.8v-13h0.6v13.7h-8.5c-2.9,0-3.4,1.2-3.5,1.4C48.2,56,45.4,56,45.4,56z
				 M46.5,53.7v0.7c-1.2-2.2-6.6-1.9-11.2-1.4V40.2c2.5,0,4.9-0.4,6.8-0.4c2.4,0,4.1,0.4,4.4,1.8v11.4c-1.5-1.7-5.9-1.6-10.4-1.1
				v0.4C40.6,51.8,45.4,51.7,46.5,53.7z M36.9,48.7c0.5,0,1.1,0,1.6,0c0.6,0,1.1,0,1.6,0v-0.3h-0.2c-0.8,0-0.8-0.1-0.8-0.6v-2.2
				c0-0.6,0.1-0.6,0.6-0.6H40v-0.3c-0.5,0-1,0-1.6,0c-0.5,0-1,0-1.6,0V45h0.5c0.5,0,0.6,0,0.6,0.6v2.2c0,0.5-0.1,0.6-0.8,0.6h-0.3
				L36.9,48.7L36.9,48.7z M42.3,46c-0.6-0.4-1-0.9-1-1.5c0-0.6,0.4-1.6,1.8-1.6c1.1,0,1.5,0.7,1.5,1.3c0,0.6-0.2,1-1.1,1.4
				c0.9,0.4,1.3,0.9,1.3,1.6c0,0.9-0.7,1.6-1.9,1.6c-1,0-1.7-0.7-1.7-1.4C41.2,46.5,41.8,46.1,42.3,46z M43.8,47.5
				c0-0.5-0.2-0.8-1.3-1.5c-0.5,0.2-0.7,0.7-0.7,1.2c0,0.8,0.6,1.2,1,1.2C43.5,48.5,43.8,48,43.8,47.5z M43.3,45.4
				c0.4-0.3,0.7-0.6,0.7-1.2c0-0.6-0.4-1.1-0.9-1.1c-0.6,0-0.9,0.5-0.9,0.9C42.1,44.6,42.5,44.9,43.3,45.4z M51.5,39.9
				c1.9,0,4.3,0.4,6.8,0.4v12.7c-4.6-0.5-10-0.8-11.2,1.4v-0.7c1.1-2,5.9-1.8,10.5-1.4v-0.4c-4.6-0.4-9-0.6-10.5,1.1V41.6
				C47.4,40.2,49.1,39.9,51.5,39.9z M48.5,46.1h0.3l0.2-0.5h2.4L49,50.4l0.4,0.1l2.9-5.7l-0.1-0.1h-3.6L48.5,46.1z M54.2,46
				c-0.6-0.4-1-0.9-1-1.5c0-0.6,0.4-1.6,1.8-1.6c1.1,0,1.5,0.7,1.5,1.3c0,0.6-0.2,1-1.1,1.4c0.9,0.4,1.3,0.9,1.3,1.6
				c0,0.9-0.7,1.6-1.9,1.6c-1,0-1.7-0.7-1.7-1.4C53.1,46.5,53.7,46.1,54.2,46z M55.7,47.5c0-0.5-0.2-0.8-1.3-1.5
				c-0.5,0.2-0.7,0.7-0.7,1.2c0,0.8,0.6,1.2,1,1.2C55.4,48.5,55.7,48,55.7,47.5z M55.2,45.4c0.4-0.3,0.7-0.6,0.7-1.2
				c0-0.6-0.4-1.1-0.9-1.1c-0.6,0-0.9,0.5-0.9,0.9C54,44.6,54.4,44.9,55.2,45.4z M75.2,92.6L46.8,69.4L18.4,92.6
				C3.8,75.6,3.9,56,3.9,47.9l0-13.3H4l42.8,34.9l42.8-34.9h0.1l0,13.3C89.7,56,89.8,75.6,75.2,92.6z M22,80.1c6,0,10.9-4.9,11-11
				c0-6.1-4.9-11-10.9-11c-6,0-10.9,4.9-11,11C11.1,75.2,16,80.1,22,80.1z M29.1,64.6c0,0.3-0.1,0.9-0.3,1c-0.1,0-0.4,0.1-0.7,0.1
				c-0.1,0-0.2,0-0.3,0.2c-0.3,0.5-0.5,0.9-0.8,1.4C27,68,27,68.6,27,69.3c0,0.3,0,0.6-0.2,0.9c-0.2,0.3-0.5,0.5-0.7,0.7
				c0,0-0.1,0.1,0.1,0c0.1,0,0.6-0.3,0.7-0.3c0.4-0.1,0.8-0.6,1.3,0c0.3,0.3,0.7,0.5,1.2,0.9c0.2,0.1,0.3,0.1,0.5,0.3
				c0.2,0.2,0.3,0.6,0.4,0.8c0.3,0.5,0.3,0.8,0.3,1c-0.2,0.1-0.9,0.1-1.2,0c-0.1-0.2-0.1-0.4-0.1-0.6c-0.1-0.3-0.2-0.4-0.3-0.5
				c-0.2-0.2-0.4-0.3-0.6-0.5c-0.5-0.3-0.6-0.4-1-0.2c-0.4,0.2-0.9,0.7-1.6,1c-0.5,0.2-1.8,0-2.1-0.3c0.1,0.4,0.9,0.8,1.4,1
				c-0.1,0.2-0.3,1.2-0.7,1.8c0-0.1-0.1-0.2-0.2-0.2c-0.4,0-0.3,0.8-0.7,1.2c0-0.1-0.1-0.3-0.3-0.3c-0.3,0-0.3,0.7-0.7,1.1
				c0-0.2-0.1-0.3-0.3-0.3c-0.2,0-0.3,0.2-0.4,0.3c-0.5,0.5-0.7,0.8-1.1,1.3c-1.5-0.1-3.7-1.1-4.5-2.1c1.4-1.5,2.7-3,3.3-3.5
				c0.3-0.9,1.2-2.8,1.5-3.7c0-0.1-0.1-0.2-0.1-0.3c-0.2,0.1-0.5,0.2-0.6,0.1c0.1-0.2,0.1-0.6,0-0.9c-0.2,0.1-0.4,0.1-0.5,0.1
				c0.1-0.3,0.1-0.6,0-0.9c0,0,0,0,0,0c-0.2,0.1-0.4,0.1-0.5,0.1c0.1-0.3,0.2-0.6,0.1-1.1c0,0,0-0.1,0-0.1c-0.3,0.1-1.2,0.3-1.4,0.2
				c-0.1-0.1,0.7-0.9,1.4-1.6c-0.6,0.3-1.5,0.6-2.8,0.8c-0.7,0.1-2.3,0.4-3.4,0.2c-0.2,0-0.1-0.3,0-0.3c0.6,0,1.4,0,1.9-0.2
				c0.2,0,0.4-0.2,0-0.2c-0.5-0.1-1.3-0.2-1.7-0.4c-0.2-0.1-0.1-0.2,0.1-0.2c0.5,0,1.1,0.1,1.6,0.2c0.3,0,0.4,0,0.2-0.2
				c-0.1-0.1-0.5-0.3-0.9-0.6c-0.1,0-0.1-0.2,0-0.2c0.3,0,1.5,0.7,2.2,0.9c0.2,0.1,0.3,0.1,0.5,0.1c0.2,0,0.2-0.1,0.2-0.2
				c0-0.2-0.8-0.6-1.2-0.8c-0.2-0.1,0-0.2,0.2-0.2c0.4,0.1,1.4,0.6,1.8,0.7c0.3,0,0.5-0.1,0.5-0.1c0-0.2-1.4-0.8-1.7-1.1
				c-0.1-0.1,0-0.2,0.1-0.1c0.7,0.1,2,1,2.6,0.9c0.1,0,0.1-0.1,0.1-0.1c0-0.3-1.1-0.8-1.4-1c-0.1-0.1,0-0.2,0.2-0.1
				c0.4,0.1,1,0.4,1.4,0.6c0.2,0.1,0.3,0.1,0.5,0.1c0.2,0,0.4-0.3,0.3-0.8c-0.1-0.5-0.6-0.7-0.9-0.8c-0.4-0.1-0.1-0.3,0.2-0.2
				c0.6,0.1,1.1,0.4,1.2,1c0,0.1,0,0.2,0,0.3c0,0.3,0.2,0.2,0.4-0.1c0.3-0.5,0.4-1,0.4-1.3c-0.1-0.6-0.9-0.8-0.9-0.9
				c0,0,0-0.1,0.1-0.1c0.3-0.1,1.2,0.3,1.3,1c0.1,0.4,0,0.6-0.1,0.9c0,0.1,0,0.1,0.2,0c0.4-0.4,0.7-1.1,0.6-1.8
				c-0.1-0.7-0.8-0.9-0.9-1.1c0,0,0.1-0.1,0.1-0.1c0.3-0.1,1.1,0.4,1.2,1.2c0.1,0.7-0.2,2.1-2.3,3.3c0.9-0.2,1.1-0.2,1.2-0.1
				c1-0.3,1.7-0.5,2-0.4c0.3,0.4-0.3,0.6-0.3,1c0,0.3,0.7-0.2,0.6,0.3c-0.2,0.4-0.5,0.4-0.8,0.5c-0.2,0.1-0.8,0.6-1.1,0.8
				c1,0.7,2.1,1.8,2.2,1.9c0.1,0.2,0.3,0.6,0.6,1.3c0,0,0,0,0,0c0.1-0.4,0.4-1.2,0.5-1.6c0.1-0.3,0.1-0.4,0.2-0.6
				c0.1-0.2,0.4-0.4,0.6-0.8c0.2-0.3,0.6-0.9,0.7-1.1c0.2-0.3,0.4-0.3,0.8-0.4C28.5,64.6,28.9,64.6,29.1,64.6z M21,64.6
				c0.1,0,0.1-0.1,0.2-0.2c0.2-0.1,0.4-0.1,0.6-0.2c0.1,0.1,0,0.3-0.1,0.4c-0.1,0.2-0.3,0.1-0.4,0C21.2,64.7,21.1,64.7,21,64.6
				C21,64.7,21,64.7,21,64.6z M60.6,69.1c0-6.1,4.9-11,11-11c6,0,10.9,5,10.9,11c0,6.1-4.9,11-10.9,11
				C65.4,80.1,60.6,75.1,60.6,69.1z M76.5,61.6c0.1,0.1,0.1,0.2,0.1,0.3c0,0.3-0.2,0.5-0.5,0.5c-0.3,0-0.5-0.2-0.5-0.5
				c0-0.2,0.2-0.5,0.4-0.5l-0.6-0.9l-1,0.4c0.1,0.1,0.2,0.2,0.2,0.4c0,0.3-0.2,0.5-0.5,0.5c-0.3,0-0.5-0.2-0.5-0.5
				c0-0.2,0.1-0.4,0.3-0.5c-0.3-0.3-0.9-0.8-1.5-1c0.5,0.8,0.7,1.9,0.7,2.7c0.6,0,2.3,0.5,3,1c0.5-0.8,1.3-1.5,2.2-1.8
				C77.9,61.7,77.1,61.5,76.5,61.6z M73.5,63.8c-0.1,0-0.1,0-0.2,0c-0.1,0-0.1,0-0.1-0.1c0,0-0.1-0.1-0.2-0.1
				c-0.3,0-0.4,0.2-0.5,0.3c0,0.1,0,0.2,0.1,0.3c0.1,0.1,0.1,0.1,0.2,0.1c0.1,0,0.1,0,0.2,0l0,0c0.1-0.1,0.2-0.2,0.2-0.3
				c0,0,0.2-0.1,0.3-0.1C73.5,63.9,73.5,63.9,73.5,63.8C73.5,63.8,73.5,63.8,73.5,63.8z M70.5,64c-0.1,0.1-0.1,0.2,0,0.3
				c0,0,0,0.1,0,0.1c0,0.2,0,0.4,0,0.7c0,0.2,0.2,0.2,0.5,0.2c0,0.1,0,0.1,0,0.2c0,0,0,0,0,0c-0.2,0-0.3,0.1-0.5,0.1
				c-0.5,0-0.7-0.3-0.7-0.7c0-0.1,0-0.2,0.1-0.2c0,0,0-0.1,0-0.1c-0.2-0.1-0.6,0.3-0.7,0.9c-0.1,0.5,0.2,0.8,0.6,0.8
				c0.2,0,0.5,0,0.9-0.1c0.6-0.2,1.2-0.3,1.6,0.1c-0.3-0.1-1.1,0-1.3,0c-0.3,0.1-0.5,0.7-0.1,0.8c0.3,0,1.3,0,1.4,0
				c-0.1,0.4-0.8,1-1.4,1.1c-0.4-0.2-1.5-0.1-2.1,0c-0.7-0.7-1.1-2.1-1.2-2.6c0-0.2,0-0.4,0.1-0.6c0.2-0.4,0.6-0.3,0.8-0.7
				c0.1-0.2,0.1-0.4,0.1-0.6c0-0.1,0.2-0.4,0-0.5c-0.1,0.1-0.2,0.2-0.4,0.1c-0.1,0-0.3-0.1-0.4,0c-0.2,0.1-0.3,0.4-0.5,0.6
				c-0.1,0.1-0.2,0.1-0.2-0.1c0-0.3,0.2-0.5,0.1-0.8c0-0.3-0.2-0.5-0.5-0.6c-0.1-0.1-0.3-0.2-0.4-0.2c-0.1,0-0.2,0-0.2,0.1
				c0.1,0,0.1,0.1,0.1,0.2c0,0.2-0.3,0.4-0.3,0.6c0,0.3,0.2,0.7,0.3,0.9c0,0.1-0.1,0.1-0.2,0.1c-0.2-0.1-0.5-0.3-0.7-0.3
				c-0.2,0-0.4,0.2-0.5,0.2c-0.1,0-0.4,0-0.4,0.2c0.2,0,0.3,0.2,0.4,0.3c0,0.1,0.1,0.2,0.2,0.3c0.2,0.1,0.6,0.1,0.9,0.1
				c0.1,0,0.3,0.1,0.3,0.4c0,0.2,0,0.4-0.1,0.6c-0.2,0.3-0.3,0.6-0.2,0.9c0.1-0.1,0.2-0.2,0.2-0.2c0.2,0,0.2,0.2,0.1,0.5
				c-0.1,0.3-0.2,0.6-0.1,0.9c0.1-0.1,0.1-0.2,0.3-0.2c0.2,0,0.3,0.2,0.1,0.5c-0.1,0.3-0.1,0.6,0,0.9c0-0.1,0.1-0.2,0.3-0.2
				c0.2,0,0.3,0.2,0.3,0.3c0.2,0.5,0.5,0.8,1.4,0.8c-0.3,0.5-2.7,0.2-3.6,0.1c-0.2,0-0.3-0.1-0.4-0.3c-0.2-0.4,0.2-0.7,0-1.1
				c-0.1-0.2-0.3-0.2-0.4-0.4c-0.1,0-0.3-0.3-0.4-0.2c0.1,0.1,0,0.3-0.1,0.4c-0.1,0.1-0.2,0.2-0.2,0.3c0,0.3,0.2,0.5,0.3,0.8
				c0.1,0.2,0,0.2-0.2,0.1c-0.2-0.2-0.6-0.6-0.9-0.6c-0.2,0-0.3,0.1-0.5,0.2c-0.1,0-0.5,0.1-0.4,0.3c0.2,0,0.3,0.1,0.3,0.3
				c0,0.1,0.1,0.3,0.2,0.4c0.3,0.2,0.8,0.1,1.1,0.2c0.1,0,0.1,0.1,0,0.2c-0.2,0.1-0.6,0.2-0.7,0.5c-0.1,0.2,0,0.4,0,0.6
				c0,0.1-0.1,0.4,0.1,0.4c0.1-0.1,0.2-0.2,0.5-0.2c0.1,0,0.3,0.1,0.4,0c0.2-0.1,0.3-0.4,0.4-0.6c0.1-0.1,0.2-0.2,0.4-0.2
				c0.1,0,0.2,0,0.3,0.1c0.2,0.2,0.2,0.6,0.8,0.7c0-0.1,0-0.1,0-0.2c0-0.1,0.1-0.2,0.2-0.2c0.1,0,0.2,0.1,0.3,0.3
				c0.2,0.3,0.3,0.3,0.6,0.4c0-0.1-0.1-0.1-0.1-0.2c0-0.1,0.1-0.2,0.2-0.2c0.1,0,0.2,0,0.3,0.2c0.2,0.3,0.3,0.4,0.6,0.5
				c-0.1-0.2,0-0.4,0.2-0.4c0.2,0,0.8,0.2,1.2,0.4c0,1.1,0.7,2.2,1.7,2.9c0-0.2,0.1-0.3,0.2-0.3c0.4,0,0.6,1,1.6,1.4
				c0-0.2,0.1-0.3,0.2-0.3c0.1,0,0.3,0.1,0.3,0.1c0.8,0.5,1.7,1,2.2,1.4c0.9-0.3,2.3-1.1,3.2-2.1c-0.6-0.2-2.2-1.4-2.7-1.9
				c-1-1-1.3-2.1-1.3-2.9c0-0.3,0-0.5,0.1-0.7c0.3,0.2,0.7,0.1,0.9-0.1c-0.5-0.4-0.4-1.1-0.2-1.3c0.2,0.2,0.7,0.1,0.9-0.1
				c-0.3-0.2-0.5-0.8-0.4-1.3c0.2,0.2,0.6,0.2,0.9,0c-0.4-0.3-0.5-0.8-0.4-1.4c0.2,0.2,0.5,0.3,0.7,0.2c-0.1-0.3-0.2-0.8-0.2-1.2
				c-0.1-0.5-0.2-1-0.3-1.3c-0.5-0.4-2-1-3-1c-0.1,0-0.3,0-0.4,0c-0.3,0.1-0.4,0.2-0.5,0.2c-0.1,0.2-0.5,0.3-0.8,0.4
				C71.3,63.7,70.7,63.8,70.5,64z M72,71.4L72,71.4c-0.1,0.6-0.5,1.6-0.7,2l0.4-0.3l0.3,0.3l0.3-0.3l0.4,0.3C72.4,73,72,72,72,71.4z
				 M79.3,74.5c0.1-0.1,0.2-0.3,0.2-0.3c-0.4-0.6-0.7-1.3-0.7-2.1c0.1-0.8,0.5-1.1,0.9-1.1c0.3,0,0.6,0.3,0.6,0.6
				c0.3-0.2,0.4-0.5,0.4-0.8c0-0.2-0.1-0.6-0.5-0.7c0.7-0.6,0.6-1.9-0.1-2.3c0.1,0.9-0.6,1.5-1.2,2.1c-0.8,0.8-0.9,1.7-0.8,2.6
				c-0.5-0.9-0.7-1.8-0.6-2.7c0.1-1,0.6-2,1.3-1.9c0.2,0,0.5,0.1,0.6,0.3c0.3-0.6,0.1-1.2-0.4-1.2c0.6-1.3-0.3-2.7-1.1-2.9
				c0.2,0.4,0.3,0.8,0.3,1.3c-0.1,1.3-1.2,2.3-1.3,4.2c-0.1,2.1,1,3.8,2.2,5.2C79,74.8,79.1,74.7,79.3,74.5z M74.4,74.2L74.4,74.2
				c-0.1,0.6-0.5,1.6-0.7,2l0.4-0.3l0.3,0.3l0.3-0.3l0.4,0.3C74.8,75.8,74.5,74.8,74.4,74.2z M72.5,65.9c0.1-0.1,0.1-0.3,0.1-0.4
				c0-0.1,0-0.2-0.1-0.3c-0.1-0.1-0.3-0.1-0.5-0.1c-0.2,0-0.4,0-0.5,0.1c0,0.1,0,0.1-0.1,0.2C71.8,65.4,72.2,65.5,72.5,65.9z"/>
		</g>
	</g>
</g>
</svg>
